TITLE ""
FILE "Disc4Track41.mp3" MP3
  TRACK 01 AUDIO
    TITLE "Disc4Track41_01"
    INDEX 01 00:00:00
  TRACK 02 AUDIO
    TITLE "Disc4Track41_02"
    INDEX 01 00:00:73
  TRACK 03 AUDIO
    TITLE "Disc4Track41_03"
    INDEX 01 00:05:51
  TRACK 04 AUDIO
    TITLE "Disc4Track41_04"
    INDEX 01 00:06:60
  TRACK 05 AUDIO
    TITLE "Disc4Track41_05"
    INDEX 01 00:09:01
  TRACK 06 AUDIO
    TITLE "Disc4Track41_06"
    INDEX 01 00:09:33
  TRACK 07 AUDIO
    TITLE "Disc4Track41_07"
    INDEX 01 00:10:34
  TRACK 08 AUDIO
    TITLE "Disc4Track41_08"
    INDEX 01 00:12:13
  TRACK 09 AUDIO
    TITLE "Disc4Track41_09"
    INDEX 01 00:13:11
  TRACK 10 AUDIO
    TITLE "Disc4Track41_10"
    INDEX 01 00:14:36
  TRACK 11 AUDIO
    TITLE "Disc4Track41_11"
    INDEX 01 00:14:67
  TRACK 12 AUDIO
    TITLE "Disc4Track41_12"
    INDEX 01 00:16:17
  TRACK 13 AUDIO
    TITLE "Disc4Track41_13"
    INDEX 01 00:18:51
  TRACK 14 AUDIO
    TITLE "Disc4Track41_14"
    INDEX 01 00:19:72
  TRACK 15 AUDIO
    TITLE "Disc4Track41_15"
    INDEX 01 00:24:36
  TRACK 16 AUDIO
    TITLE "Disc4Track41_16"
    INDEX 01 00:24:68
  TRACK 17 AUDIO
    TITLE "Disc4Track41_17"
    INDEX 01 00:26:12
  TRACK 18 AUDIO
    TITLE "Disc4Track41_18"
    INDEX 01 00:28:16
  TRACK 19 AUDIO
    TITLE "Disc4Track41_19"
    INDEX 01 00:29:37
  TRACK 20 AUDIO
    TITLE "Disc4Track41_20"
    INDEX 01 00:29:69
  TRACK 21 AUDIO
    TITLE "Disc4Track41_21"
    INDEX 01 00:31:11
  TRACK 22 AUDIO
    TITLE "Disc4Track41_22"
    INDEX 01 00:33:39
  TRACK 23 AUDIO
    TITLE "Disc4Track41_23"
    INDEX 01 00:34:56
  TRACK 24 AUDIO
    TITLE "Disc4Track41_24"
    INDEX 01 00:40:57
  TRACK 25 AUDIO
    TITLE "Disc4Track41_25"
    INDEX 01 00:41:13
  TRACK 26 AUDIO
    TITLE "Disc4Track41_26"
    INDEX 01 00:42:32
  TRACK 27 AUDIO
    TITLE "Disc4Track41_27"
    INDEX 01 00:43:40
  TRACK 28 AUDIO
    TITLE "Disc4Track41_28"
    INDEX 01 00:44:55
  TRACK 29 AUDIO
    TITLE "Disc4Track41_29"
    INDEX 01 00:46:52
  TRACK 30 AUDIO
    TITLE "Disc4Track41_30"
    INDEX 01 00:47:14
  TRACK 31 AUDIO
    TITLE "Disc4Track41_31"
    INDEX 01 00:48:43
  TRACK 32 AUDIO
    TITLE "Disc4Track41_32"
    INDEX 01 00:50:49
  TRACK 33 AUDIO
    TITLE "Disc4Track41_33"
    INDEX 01 00:52:03
  TRACK 34 AUDIO
    TITLE "Disc4Track41_34"
    INDEX 01 00:52:36
  TRACK 35 AUDIO
    TITLE "Disc4Track41_35"
    INDEX 01 00:53:54
  TRACK 36 AUDIO
    TITLE "Disc4Track41_36"
    INDEX 01 00:55:74
  TRACK 37 AUDIO
    TITLE "Disc4Track41_37"
    INDEX 01 00:57:16
  TRACK 38 AUDIO
    TITLE "Disc4Track41_38"
    INDEX 01 01:01:41
  TRACK 39 AUDIO
    TITLE "Disc4Track41_39"
    INDEX 01 01:01:73
  TRACK 40 AUDIO
    TITLE "Disc4Track41_40"
    INDEX 01 01:03:13
  TRACK 41 AUDIO
    TITLE "Disc4Track41_41"
    INDEX 01 01:04:18
  TRACK 42 AUDIO
    TITLE "Disc4Track41_42"
    INDEX 01 01:05:31
  TRACK 43 AUDIO
    TITLE "Disc4Track41_43"
    INDEX 01 01:07:22
  TRACK 44 AUDIO
    TITLE "Disc4Track41_44"
    INDEX 01 01:07:54
  TRACK 45 AUDIO
    TITLE "Disc4Track41_45"
    INDEX 01 01:09:72
  TRACK 46 AUDIO
    TITLE "Disc4Track41_46"
    INDEX 01 01:12:18
  TRACK 47 AUDIO
    TITLE "Disc4Track41_47"
    INDEX 01 01:14:34
  TRACK 48 AUDIO
    TITLE "Disc4Track41_48"
    INDEX 01 01:19:37
  TRACK 49 AUDIO
    TITLE "Disc4Track41_49"
    INDEX 01 01:19:69
  TRACK 50 AUDIO
    TITLE "Disc4Track41_50"
    INDEX 01 01:22:08
  TRACK 51 AUDIO
    TITLE "Disc4Track41_51"
    INDEX 01 01:24:29
  TRACK 52 AUDIO
    TITLE "Disc4Track41_52"
    INDEX 01 01:26:45
